<?xml version="1.0" standalone="no"?>
<!DOCTYPE svg PUBLIC "-//W3C//DTD SVG 20010904//EN"
 "http://www.w3.org/TR/2001/REC-SVG-20010904/DTD/svg10.dtd">
<svg version="1.0" xmlns="http://www.w3.org/2000/svg"
 width="266.000000pt" height="266.000000pt" viewBox="0 0 266.000000 266.000000"
 preserveAspectRatio="xMidYMid meet">
<metadata>
Created by potrace 1.11, written by Peter Selinger 2001-2013
</metadata>
<g transform="translate(0.000000,266.000000) scale(0.100000,-0.100000)"
fill="#000000" stroke="none">
<path d="M1160 2643 c-35 -7 -70 -19 -77 -26 -7 -7 -13 -47 -15 -96 l-3 -84
-50 -17 c-192 -65 -380 -209 -491 -377 -55 -84 -112 -211 -136 -309 -31 -125
-31 -343 0 -459 31 -118 75 -217 137 -310 l54 -82 -12 -74 c-17 -99 -14 -212
7 -275 13 -39 25 -55 50 -69 29 -16 38 -17 65 -5 43 17 102 81 136 145 l28 55
46 -26 c25 -14 95 -40 155 -58 l109 -34 3 -63 c4 -81 31 -213 51 -253 8 -17
26 -45 39 -62 13 -17 21 -33 19 -36 -2 -2 5 -4 15 -5 69 -6 74 -5 105 28 17
19 34 34 37 34 3 0 10 4 15 9 5 5 3 6 -4 2 -16 -9 -17 -10 6 49 24 65 40 143
45 228 2 37 6 70 8 73 3 3 17 7 31 9 45 9 161 47 199 66 21 11 41 19 45 19 14
0 45 -59 37 -72 -4 -7 -3 -8 4 -4 7 4 12 3 12 -2 0 -16 89 -102 106 -102 8 0
13 -4 10 -9 -5 -8 62 2 68 11 48 66 64 124 60 223 -1 60 -13 157 -19 163 -2 2
20 36 50 75 133 175 197 375 190 602 -3 125 -5 141 -32 240 -76 288 -315 546
-599 648 l-69 25 -3 90 -3 91 -32 10 c-90 29 -295 36 -397 14z"/>
<path d="M866 458 c3 -5 10 -6 15 -3 13 9 11 12 -6 12 -8 0 -12 -4 -9 -9z"/>
</g>
</svg>
